{
  "accessors": [
    {
      "bufferView": 2,
      "componentType": 5126,
      "count": 50157,
      "max": [
        1.456226110458374,
        4.031968116760254,
        0.5401945114135742
      ],
      "min": [
        -4.498144149780273,
        -4.189589500427246,
        -0.44035816192626953
      ],
      "type": "VEC3"
    },
    {
      "bufferView": 2,
      "byteOffset": 601884,
      "componentType": 5126,
      "count": 50157,
      "max": [
        0.9996746778488159,
        0.9960024952888489,
        0.999998927116394
      ],
      "min": [
        -0.9989549517631531,
        -0.9959911108016968,
        -0.8530617952346802
      ],
      "type": "VEC3"
    },
    {
      "bufferView": 1,
      "componentType": 5126,
      "count": 50157,
      "max": [
        0.9990000128746033,
        0.7202218770980835
      ],
      "min": [
        0.0010000000474974513,
        0.0010000000474974513
      ],
      "type": "VEC2"
    },
    {
      "bufferView": 1,
      "byteOffset": 401256,
      "componentType": 5126,
      "count": 50157,
      "max": [
        0.9990000128746033,
        0.7202218770980835
      ],
      "min": [
        0.0010000000474974513,
        0.0010000000474974513
      ],
      "type": "VEC2"
    },
    {
      "bufferView": 0,
      "componentType": 5125,
      "count": 297612,
      "type": "SCALAR"
    },
    {
      "bufferView": 2,
      "byteOffset": 1203768,
      "componentType": 5126,
      "count": 30328,
      "max": [
        4.494518280029297,
        4.079036712646484,
        0.36150550842285156
      ],
      "min": [
        0.6417365074157715,
        -4.119301795959473,
        -0.5674524307250977
      ],
      "type": "VEC3"
    },
    {
      "bufferView": 2,
      "byteOffset": 1567704,
      "componentType": 5126,
      "count": 30328,
      "max": [
        0.9989421367645264,
        0.9973708391189575,
        0.999999463558197
      ],
      "min": [
        -0.9989380836486816,
        -0.9972373247146606,
        -0.9938943982124329
      ],
      "type": "VEC3"
    },
    {
      "bufferView": 1,
      "byteOffset": 802512,
      "componentType": 5126,
      "count": 30328,
      "max": [
        0.9990000128746033,
        0.4528944790363312
      ],
      "min": [
        0.0009999137837439775,
        0.0010000000474974513
      ],
      "type": "VEC2"
    },
    {
      "bufferView": 1,
      "byteOffset": 1045136,
      "componentType": 5126,
      "count": 30328,
      "max": [
        0.9990000128746033,
        0.4528944790363312
      ],
      "min": [
        0.0009999137837439775,
        0.0010000000474974513
      ],
      "type": "VEC2"
    },
    {
      "bufferView": 0,
      "byteOffset": 1190448,
      "componentType": 5125,
      "count": 179049,
      "type": "SCALAR"
    }
  ],
  "asset": {
    "extras": {
      "author": "axonite (https://sketchfab.com/axonite)",
      "license": "CC-BY-4.0 (http://creativecommons.org/licenses/by/4.0/)",
      "source": "https://sketchfab.com/3d-models/gallery-bare-concrete-wall-8ff431d95547422ca52bb0203a2874e5",
      "title": "Gallery bare concrete wall"
    },
    "generator": "Sketchfab-16.68.0",
    "version": "2.0"
  },
  "bufferViews": [
    {
      "buffer": 0,
      "byteLength": 1906644,
      "name": "floatBufferViews",
      "target": 34963
    },
    {
      "buffer": 0,
      "byteLength": 1287760,
      "byteOffset": 1906644,
      "byteStride": 8,
      "name": "floatBufferViews",
      "target": 34962
    },
    {
      "buffer": 0,
      "byteLength": 1931640,
      "byteOffset": 3194404,
      "byteStride": 12,
      "name": "floatBufferViews",
      "target": 34962
    }
  ],
  "buffers": [
    {
      "byteLength": 5126044,
      "uri": "scene.bin"
    }
  ],
  "extensionsUsed": [
    "KHR_materials_unlit"
  ],
  "images": [
    {
      "uri": "textures/material1_baseColor.jpeg"
    },
    {
      "uri": "textures/material0_baseColor.jpeg"
    }
  ],
  "materials": [
    {
      "doubleSided": true,
      "extensions": {
        "KHR_materials_unlit": {}
      },
      "name": "material1",
      "pbrMetallicRoughness": {
        "baseColorTexture": {
          "index": 0
        },
        "metallicFactor": 0.0
      }
    },
    {
      "doubleSided": true,
      "extensions": {
        "KHR_materials_unlit": {}
      },
      "name": "material0",
      "pbrMetallicRoughness": {
        "baseColorTexture": {
          "index": 1
        },
        "metallicFactor": 0.0
      }
    }
  ],
  "meshes": [
    {
      "name": "Model_material1_0",
      "primitives": [
        {
          "attributes": {
            "NORMAL": 1,
            "POSITION": 0,
            "TEXCOORD_0": 2,
            "TEXCOORD_1": 3
          },
          "indices": 4,
          "material": 0,
          "mode": 4
        }
      ]
    },
    {
      "name": "Model_material0_0",
      "primitives": [
        {
          "attributes": {
            "NORMAL": 6,
            "POSITION": 5,
            "TEXCOORD_0": 7,
            "TEXCOORD_1": 8
          },
          "indices": 9,
          "material": 1,
          "mode": 4
        }
      ]
    }
  ],
  "nodes": [
    {
      "children": [
        1
      ],
      "matrix": [
        0.9992439150810242,
        -0.019457947462797172,
        0.03365902975201606,
        0.0,
        0.021666279062628746,
        0.997548520565033,
        -0.06653938442468621,
        0.0,
        -0.032281793653964996,
        0.06721834093332268,
        0.9972159266471863,
        0.0,
        0.0,
        0.0,
        0.0,
        1.0
      ],
      "name": "Sketchfab_model"
    },
    {
      "children": [
        2
      ],
      "matrix": [
        0.009999999776482582,
        0.0,
        0.0,
        0.0,
        0.0,
        0.0,
        0.009999999776482582,
        0.0,
        0.0,
        -0.009999999776482582,
        0.0,
        0.0,
        0.0,
        0.0,
        0.0,
        1.0
      ],
      "name": "gallery-concrete.fbx"
    },
    {
      "children": [
        3
      ],
      "name": "RootNode"
    },
    {
      "children": [
        4,
        5
      ],
      "matrix": [
        100.0,
        0.0,
        0.0,
        0.0,
        0.0,
        -1.629206793918314e-05,
        -99.99999999999868,
        0.0,
        0.0,
        99.99999999999868,
        -1.629206793918314e-05,
        0.0,
        0.0,
        0.0,
        0.0,
        1.0
      ],
      "name": "Model"
    },
    {
      "mesh": 0,
      "name": "Model_material1_0"
    },
    {
      "mesh": 1,
      "name": "Model_material0_0"
    }
  ],
  "samplers": [
    {
      "magFilter": 9729,
      "minFilter": 9987,
      "wrapS": 10497,
      "wrapT": 10497
    }
  ],
  "scene": 0,
  "scenes": [
    {
      "name": "Sketchfab_Scene",
      "nodes": [
        0
      ]
    }
  ],
  "textures": [
    {
      "sampler": 0,
      "source": 0
    },
    {
      "sampler": 0,
      "source": 1
    }
  ]
}
