{
  "accessors": [
    {
      "bufferView": 2,
      "componentType": 5126,
      "count": 561,
      "max": [
        0.5,
        0.09698744863271713,
        0.5
      ],
      "min": [
        -0.5,
        -0.1391485184431076,
        -0.49755561351776123
      ],
      "type": "VEC3"
    },
    {
      "bufferView": 2,
      "byteOffset": 6732,
      "componentType": 5126,
      "count": 561,
      "max": [
        0.21633769571781158,
        0.9999766945838928,
        0.988865077495575
      ],
      "min": [
        -0.09649140387773514,
        0.14750273525714874,
        -0.9890493750572205
      ],
      "type": "VEC3"
    },
    {
      "bufferView": 1,
      "componentType": 5126,
      "count": 561,
      "max": [
        1.0,
        1.0
      ],
      "min": [
        0.0,
        0.0
      ],
      "type": "VEC2"
    },
    {
      "bufferView": 0,
      "componentType": 5125,
      "count": 3000,
      "type": "SCALAR"
    },
    {
      "bufferView": 2,
      "byteOffset": 13464,
      "componentType": 5126,
      "count": 561,
      "max": [
        0.5,
        0.09698744863271713,
        0.5
      ],
      "min": [
        -0.5,
        -0.1391485184431076,
        -0.49755561351776123
      ],
      "type": "VEC3"
    },
    {
      "bufferView": 2,
      "byteOffset": 20196,
      "componentType": 5126,
      "count": 561,
      "max": [
        0.21633769571781158,
        0.9999766945838928,
        0.988865077495575
      ],
      "min": [
        -0.09649140387773514,
        0.14750273525714874,
        -0.9890493750572205
      ],
      "type": "VEC3"
    },
    {
      "bufferView": 1,
      "byteOffset": 4488,
      "componentType": 5126,
      "count": 561,
      "max": [
        1.0,
        1.0
      ],
      "min": [
        0.0,
        0.0
      ],
      "type": "VEC2"
    },
    {
      "bufferView": 0,
      "byteOffset": 12000,
      "componentType": 5125,
      "count": 3000,
      "type": "SCALAR"
    },
    {
      "bufferView": 2,
      "byteOffset": 26928,
      "componentType": 5126,
      "count": 561,
      "max": [
        0.5,
        0.09698744863271713,
        0.5
      ],
      "min": [
        -0.5,
        -0.1391485184431076,
        -0.49755561351776123
      ],
      "type": "VEC3"
    },
    {
      "bufferView": 2,
      "byteOffset": 33660,
      "componentType": 5126,
      "count": 561,
      "max": [
        0.21633769571781158,
        0.9999766945838928,
        0.988865077495575
      ],
      "min": [
        -0.09649140387773514,
        0.14750273525714874,
        -0.9890493750572205
      ],
      "type": "VEC3"
    },
    {
      "bufferView": 1,
      "byteOffset": 8976,
      "componentType": 5126,
      "count": 561,
      "max": [
        1.0,
        1.0
      ],
      "min": [
        0.0,
        0.0
      ],
      "type": "VEC2"
    },
    {
      "bufferView": 0,
      "byteOffset": 24000,
      "componentType": 5125,
      "count": 3000,
      "type": "SCALAR"
    },
    {
      "bufferView": 2,
      "byteOffset": 40392,
      "componentType": 5126,
      "count": 561,
      "max": [
        0.5,
        0.09698744863271713,
        0.5
      ],
      "min": [
        -0.5,
        -0.1391485184431076,
        -0.49755561351776123
      ],
      "type": "VEC3"
    },
    {
      "bufferView": 2,
      "byteOffset": 47124,
      "componentType": 5126,
      "count": 561,
      "max": [
        0.21633769571781158,
        0.9999766945838928,
        0.988865077495575
      ],
      "min": [
        -0.09649140387773514,
        0.14750273525714874,
        -0.9890493750572205
      ],
      "type": "VEC3"
    },
    {
      "bufferView": 1,
      "byteOffset": 13464,
      "componentType": 5126,
      "count": 561,
      "max": [
        1.0,
        1.0
      ],
      "min": [
        0.0,
        0.0
      ],
      "type": "VEC2"
    },
    {
      "bufferView": 0,
      "byteOffset": 36000,
      "componentType": 5125,
      "count": 3000,
      "type": "SCALAR"
    },
    {
      "bufferView": 2,
      "byteOffset": 53856,
      "componentType": 5126,
      "count": 561,
      "max": [
        0.5,
        0.09698744863271713,
        0.5
      ],
      "min": [
        -0.5,
        -0.1391485184431076,
        -0.49755561351776123
      ],
      "type": "VEC3"
    },
    {
      "bufferView": 2,
      "byteOffset": 60588,
      "componentType": 5126,
      "count": 561,
      "max": [
        0.21633769571781158,
        0.9999766945838928,
        0.988865077495575
      ],
      "min": [
        -0.09649140387773514,
        0.14750273525714874,
        -0.9890493750572205
      ],
      "type": "VEC3"
    },
    {
      "bufferView": 1,
      "byteOffset": 17952,
      "componentType": 5126,
      "count": 561,
      "max": [
        1.0,
        1.0
      ],
      "min": [
        0.0,
        0.0
      ],
      "type": "VEC2"
    },
    {
      "bufferView": 0,
      "byteOffset": 48000,
      "componentType": 5125,
      "count": 3000,
      "type": "SCALAR"
    },
    {
      "bufferView": 2,
      "byteOffset": 67320,
      "componentType": 5126,
      "count": 561,
      "max": [
        0.5,
        0.09698744863271713,
        0.5
      ],
      "min": [
        -0.5,
        -0.1391485184431076,
        -0.49755561351776123
      ],
      "type": "VEC3"
    },
    {
      "bufferView": 2,
      "byteOffset": 74052,
      "componentType": 5126,
      "count": 561,
      "max": [
        0.21633769571781158,
        0.9999766945838928,
        0.988865077495575
      ],
      "min": [
        -0.09649140387773514,
        0.14750273525714874,
        -0.9890493750572205
      ],
      "type": "VEC3"
    },
    {
      "bufferView": 1,
      "byteOffset": 22440,
      "componentType": 5126,
      "count": 561,
      "max": [
        1.0,
        1.0
      ],
      "min": [
        0.0,
        0.0
      ],
      "type": "VEC2"
    },
    {
      "bufferView": 0,
      "byteOffset": 60000,
      "componentType": 5125,
      "count": 3000,
      "type": "SCALAR"
    },
    {
      "bufferView": 2,
      "byteOffset": 80784,
      "componentType": 5126,
      "count": 561,
      "max": [
        0.5,
        0.09698744863271713,
        0.5
      ],
      "min": [
        -0.5,
        -0.1391485184431076,
        -0.49755561351776123
      ],
      "type": "VEC3"
    },
    {
      "bufferView": 2,
      "byteOffset": 87516,
      "componentType": 5126,
      "count": 561,
      "max": [
        0.21633769571781158,
        0.9999766945838928,
        0.988865077495575
      ],
      "min": [
        -0.09649140387773514,
        0.14750273525714874,
        -0.9890493750572205
      ],
      "type": "VEC3"
    },
    {
      "bufferView": 1,
      "byteOffset": 26928,
      "componentType": 5126,
      "count": 561,
      "max": [
        1.0,
        1.0
      ],
      "min": [
        0.0,
        0.0
      ],
      "type": "VEC2"
    },
    {
      "bufferView": 0,
      "byteOffset": 72000,
      "componentType": 5125,
      "count": 3000,
      "type": "SCALAR"
    },
    {
      "bufferView": 2,
      "byteOffset": 94248,
      "componentType": 5126,
      "count": 561,
      "max": [
        0.5,
        0.09698744863271713,
        0.5
      ],
      "min": [
        -0.5,
        -0.1391485184431076,
        -0.49755561351776123
      ],
      "type": "VEC3"
    },
    {
      "bufferView": 2,
      "byteOffset": 100980,
      "componentType": 5126,
      "count": 561,
      "max": [
        0.21633769571781158,
        0.9999766945838928,
        0.988865077495575
      ],
      "min": [
        -0.09649140387773514,
        0.14750273525714874,
        -0.9890493750572205
      ],
      "type": "VEC3"
    },
    {
      "bufferView": 1,
      "byteOffset": 31416,
      "componentType": 5126,
      "count": 561,
      "max": [
        1.0,
        1.0
      ],
      "min": [
        0.0,
        0.0
      ],
      "type": "VEC2"
    },
    {
      "bufferView": 0,
      "byteOffset": 84000,
      "componentType": 5125,
      "count": 3000,
      "type": "SCALAR"
    }
  ],
  "asset": {
    "extras": {
      "author": "LeeVai (https://sketchfab.com/leevai42)",
      "license": "CC-BY-4.0 (http://creativecommons.org/licenses/by/4.0/)",
      "source": "https://sketchfab.com/3d-models/streamers-ade79c17a4c24db5ac2393185120e738",
      "title": "Streamers"
    },
    "generator": "Sketchfab-12.65.0",
    "version": "2.0"
  },
  "bufferViews": [
    {
      "buffer": 0,
      "byteLength": 96000,
      "name": "floatBufferViews",
      "target": 34963
    },
    {
      "buffer": 0,
      "byteLength": 35904,
      "byteOffset": 96000,
      "byteStride": 8,
      "name": "floatBufferViews",
      "target": 34962
    },
    {
      "buffer": 0,
      "byteLength": 107712,
      "byteOffset": 131904,
      "byteStride": 12,
      "name": "floatBufferViews",
      "target": 34962
    }
  ],
  "buffers": [
    {
      "byteLength": 239616,
      "uri": "scene.bin"
    }
  ],
  "materials": [
    {
      "doubleSided": true,
      "name": "lambert10",
      "pbrMetallicRoughness": {
        "baseColorFactor": [
          1.0,
          0.0,
          0.0,
          1.0
        ],
        "metallicFactor": 0.0,
        "roughnessFactor": 0.6
      }
    },
    {
      "doubleSided": true,
      "name": "lambert11",
      "pbrMetallicRoughness": {
        "baseColorFactor": [
          0.0,
          1.0,
          0.0,
          1.0
        ],
        "metallicFactor": 0.0,
        "roughnessFactor": 0.6
      }
    },
    {
      "doubleSided": true,
      "name": "lambert9",
      "pbrMetallicRoughness": {
        "baseColorFactor": [
          0.5236340996460283,
          0.0,
          0.0,
          1.0
        ],
        "metallicFactor": 0.0,
        "roughnessFactor": 0.6
      }
    },
    {
      "doubleSided": true,
      "name": "lambert4",
      "pbrMetallicRoughness": {
        "baseColorFactor": [
          0.6996455585989422,
          0.6996455585989422,
          0.0,
          1.0
        ],
        "metallicFactor": 0.40224688657505314,
        "roughnessFactor": 0.5249207855823618
      }
    },
    {
      "doubleSided": true,
      "name": "lambert8",
      "pbrMetallicRoughness": {
        "baseColorFactor": [
          0.0,
          0.0,
          0.8088940503628197,
          1.0
        ],
        "metallicFactor": 0.0,
        "roughnessFactor": 0.6
      }
    },
    {
      "doubleSided": true,
      "name": "lambert7",
      "pbrMetallicRoughness": {
        "baseColorFactor": [
          1.0,
          0.0,
          1.0,
          1.0
        ],
        "metallicFactor": 0.0,
        "roughnessFactor": 0.6
      }
    },
    {
      "doubleSided": true,
      "name": "lambert6",
      "pbrMetallicRoughness": {
        "baseColorFactor": [
          0.0,
          0.5479115422602233,
          0.0,
          1.0
        ],
        "metallicFactor": 0.4872179357247357,
        "roughnessFactor": 0.6
      }
    },
    {
      "doubleSided": true,
      "name": "lambert5",
      "pbrMetallicRoughness": {
        "baseColorFactor": [
          0.0,
          0.5903970668350645,
          0.5903970668350645,
          1.0
        ],
        "metallicFactor": 0.0,
        "roughnessFactor": 0.6
      }
    }
  ],
  "meshes": [
    {
      "name": "pPlane1_lambert10_0",
      "primitives": [
        {
          "attributes": {
            "NORMAL": 1,
            "POSITION": 0,
            "TEXCOORD_0": 2
          },
          "indices": 3,
          "material": 0,
          "mode": 4
        }
      ]
    },
    {
      "name": "pPlane2_lambert11_0",
      "primitives": [
        {
          "attributes": {
            "NORMAL": 5,
            "POSITION": 4,
            "TEXCOORD_0": 6
          },
          "indices": 7,
          "material": 1,
          "mode": 4
        }
      ]
    },
    {
      "name": "pPlane3_lambert9_0",
      "primitives": [
        {
          "attributes": {
            "NORMAL": 9,
            "POSITION": 8,
            "TEXCOORD_0": 10
          },
          "indices": 11,
          "material": 2,
          "mode": 4
        }
      ]
    },
    {
      "name": "pPlane4_lambert4_0",
      "primitives": [
        {
          "attributes": {
            "NORMAL": 13,
            "POSITION": 12,
            "TEXCOORD_0": 14
          },
          "indices": 15,
          "material": 3,
          "mode": 4
        }
      ]
    },
    {
      "name": "pPlane5_lambert8_0",
      "primitives": [
        {
          "attributes": {
            "NORMAL": 17,
            "POSITION": 16,
            "TEXCOORD_0": 18
          },
          "indices": 19,
          "material": 4,
          "mode": 4
        }
      ]
    },
    {
      "name": "pPlane6_lambert7_0",
      "primitives": [
        {
          "attributes": {
            "NORMAL": 21,
            "POSITION": 20,
            "TEXCOORD_0": 22
          },
          "indices": 23,
          "material": 5,
          "mode": 4
        }
      ]
    },
    {
      "name": "pPlane7_lambert6_0",
      "primitives": [
        {
          "attributes": {
            "NORMAL": 25,
            "POSITION": 24,
            "TEXCOORD_0": 26
          },
          "indices": 27,
          "material": 6,
          "mode": 4
        }
      ]
    },
    {
      "name": "pPlane8_lambert5_0",
      "primitives": [
        {
          "attributes": {
            "NORMAL": 29,
            "POSITION": 28,
            "TEXCOORD_0": 30
          },
          "indices": 31,
          "material": 7,
          "mode": 4
        }
      ]
    }
  ],
  "nodes": [
    {
      "children": [
        1
      ],
      "matrix": [
        0.29961612820625305,
        0.0,
        0.0,
        0.0,
        0.0,
        6.652814481672499e-17,
        -0.29961612820625305,
        0.0,
        0.0,
        0.29961612820625305,
        6.652814481672499e-17,
        0.0,
        0.0,
        0.0,
        0.0,
        1.0
      ],
      "name": "Sketchfab_model"
    },
    {
      "children": [
        2
      ],
      "matrix": [
        1.0,
        0.0,
        0.0,
        0.0,
        0.0,
        0.0,
        1.0,
        0.0,
        0.0,
        -1.0,
        0.0,
        0.0,
        0.0,
        0.0,
        0.0,
        1.0
      ],
      "name": "5434b2f3053b421d9a39189748a89d84.fbx"
    },
    {
      "children": [
        3,
        5,
        7,
        9,
        11,
        13,
        15,
        17
      ],
      "name": "RootNode"
    },
    {
      "children": [
        4
      ],
      "matrix": [
        0.43526965379714966,
        0.0,
        0.0,
        0.0,
        0.0,
        -2.220446049250313e-16,
        1.0,
        0.0,
        0.0,
        -8.337786674499512,
        -1.8513605480884347e-15,
        0.0,
        -4.635020732879639,
        4.632262706756592,
        0.0,
        1.0
      ],
      "name": "pPlane1"
    },
    {
      "mesh": 0,
      "name": "pPlane1_lambert10_0"
    },
    {
      "children": [
        6
      ],
      "matrix": [
        -0.4454788863658905,
        -6.480525291809139e-16,
        -4.392760969443058e-32,
        0.0,
        9.860761315262648e-32,
        -2.220446049250313e-16,
        1.0,
        0.0,
        -1.2856791399180617e-14,
        8.837908744812012,
        1.9624099556052625e-15,
        0.0,
        -1.1973581314086914,
        4.632262706756592,
        0.0,
        1.0
      ],
      "name": "pPlane2"
    },
    {
      "mesh": 1,
      "name": "pPlane2_lambert11_0"
    },
    {
      "children": [
        8
      ],
      "matrix": [
        0.4454788863658905,
        0.0,
        0.0,
        0.0,
        0.0,
        -2.220446049250313e-16,
        1.0,
        0.0,
        0.0,
        -9.438055038452148,
        -2.0956692022738085e-15,
        0.0,
        -8.484295845031738,
        4.632262706756592,
        0.0,
        1.0
      ],
      "name": "pPlane3"
    },
    {
      "mesh": 2,
      "name": "pPlane3_lambert9_0"
    },
    {
      "children": [
        10
      ],
      "matrix": [
        -0.4252461791038513,
        -4.297721165488924e-16,
        -4.1932510723705083e-32,
        0.0,
        9.860761315262648e-32,
        -2.220446049250313e-16,
        1.0,
        0.0,
        -8.931971487970092e-15,
        8.837908744812012,
        1.9624099556052625e-15,
        0.0,
        -3.5234503746032715,
        4.632262706756592,
        0.0,
        1.0
      ],
      "name": "pPlane4"
    },
    {
      "mesh": 3,
      "name": "pPlane4_lambert4_0"
    },
    {
      "children": [
        12
      ],
      "matrix": [
        0.4454788863658905,
        0.0,
        0.0,
        0.0,
        0.0,
        -2.220446049250313e-16,
        1.0,
        0.0,
        0.0,
        -8.137738227844238,
        -1.8069408697849983e-15,
        0.0,
        -2.453791618347168,
        4.632262706756592,
        0.0,
        1.0
      ],
      "name": "pPlane5"
    },
    {
      "mesh": 4,
      "name": "pPlane5_lambert8_0"
    },
    {
      "children": [
        14
      ],
      "matrix": [
        -0.4454788863658905,
        -6.480525291809139e-16,
        -4.392760969443058e-32,
        0.0,
        9.860761315262648e-32,
        -2.220446049250313e-16,
        1.0,
        0.0,
        -1.1110686297982336e-14,
        7.63761568069458,
        1.6958913563890521e-15,
        0.0,
        -5.446353912353516,
        4.632262706756592,
        0.0,
        1.0
      ],
      "name": "pPlane6"
    },
    {
      "mesh": 5,
      "name": "pPlane6_lambert7_0"
    },
    {
      "children": [
        16
      ],
      "matrix": [
        0.43545541167259216,
        0.0,
        0.0,
        0.0,
        0.0,
        -2.220446049250313e-16,
        1.0,
        0.0,
        0.0,
        -8.837908744812012,
        -1.9624099556052625e-15,
        0.0,
        -6.195255756378174,
        4.632262706756592,
        0.0,
        1.0
      ],
      "name": "pPlane7"
    },
    {
      "mesh": 6,
      "name": "pPlane7_lambert6_0"
    },
    {
      "children": [
        18
      ],
      "matrix": [
        -0.4454788863658905,
        -6.480525291809139e-16,
        -4.392760969443058e-32,
        0.0,
        9.860761315262648e-32,
        -2.220446049250313e-16,
        1.0,
        0.0,
        -1.0383142563622255e-14,
        7.13749361038208,
        1.5848419488722243e-15,
        0.0,
        -7.312655448913574,
        4.632262706756592,
        0.0,
        1.0
      ],
      "name": "pPlane8"
    },
    {
      "mesh": 7,
      "name": "pPlane8_lambert5_0"
    }
  ],
  "scene": 0,
  "scenes": [
    {
      "name": "Sketchfab_Scene",
      "nodes": [
        0
      ]
    }
  ]
}
