{
  "accessors": [
    {
      "bufferView": 2,
      "componentType": 5126,
      "count": 3712,
      "max": [
        0.5786730051040649,
        0.543982982635498,
        2.9581170082092285
      ],
      "min": [
        -0.5786730051040649,
        -0.543982982635498,
        1.336408019065857
      ],
      "type": "VEC3"
    },
    {
      "bufferView": 2,
      "byteOffset": 44544,
      "componentType": 5126,
      "count": 3712,
      "max": [
        0.9999775886535645,
        0.9999775886535645,
        1.0
      ],
      "min": [
        -0.9999775886535645,
        -0.9999775886535645,
        -1.0
      ],
      "type": "VEC3"
    },
    {
      "bufferView": 1,
      "componentType": 5126,
      "count": 3712,
      "max": [
        0.875,
        1.0
      ],
      "min": [
        0.125,
        0.0
      ],
      "type": "VEC2"
    },
    {
      "bufferView": 0,
      "componentType": 5125,
      "count": 20928,
      "type": "SCALAR"
    },
    {
      "bufferView": 2,
      "byteOffset": 89088,
      "componentType": 5126,
      "count": 3712,
      "max": [
        -0.042899999767541885,
        1.3436789512634277,
        2.2787609100341797
      ],
      "min": [
        -1.199623942375183,
        0.2467540055513382,
        0.6935399770736694
      ],
      "type": "VEC3"
    },
    {
      "bufferView": 2,
      "byteOffset": 133632,
      "componentType": 5126,
      "count": 3712,
      "max": [
        0.9988332986831665,
        0.9993929862976074,
        0.9991037249565125
      ],
      "min": [
        -0.9988332986831665,
        -0.9994323253631592,
        -0.9991037249565125
      ],
      "type": "VEC3"
    },
    {
      "bufferView": 1,
      "byteOffset": 29696,
      "componentType": 5126,
      "count": 3712,
      "max": [
        0.875,
        1.0
      ],
      "min": [
        0.125,
        0.0
      ],
      "type": "VEC2"
    },
    {
      "bufferView": 0,
      "byteOffset": 83712,
      "componentType": 5125,
      "count": 20928,
      "type": "SCALAR"
    },
    {
      "bufferView": 2,
      "byteOffset": 178176,
      "componentType": 5126,
      "count": 3712,
      "max": [
        1.6923229694366455,
        1.5694080591201782,
        3.766321897506714
      ],
      "min": [
        0.5533390045166016,
        0.42958998680114746,
        2.181101083755493
      ],
      "type": "VEC3"
    },
    {
      "bufferView": 2,
      "byteOffset": 222720,
      "componentType": 5126,
      "count": 3712,
      "max": [
        0.9987784624099731,
        0.9993685483932495,
        0.9991053938865662
      ],
      "min": [
        -0.9987784624099731,
        -0.9993685483932495,
        -0.9991053938865662
      ],
      "type": "VEC3"
    },
    {
      "bufferView": 1,
      "byteOffset": 59392,
      "componentType": 5126,
      "count": 3712,
      "max": [
        0.875,
        1.0
      ],
      "min": [
        0.125,
        0.0
      ],
      "type": "VEC2"
    },
    {
      "bufferView": 0,
      "byteOffset": 167424,
      "componentType": 5125,
      "count": 20928,
      "type": "SCALAR"
    },
    {
      "bufferView": 2,
      "byteOffset": 267264,
      "componentType": 5126,
      "count": 4680,
      "max": [
        0.8953830003738403,
        1.4285169839859009,
        2.334686040878296
      ],
      "min": [
        -0.6235150098800659,
        -0.588690996170044,
        -2.9224419593811035
      ],
      "type": "VEC3"
    },
    {
      "bufferView": 2,
      "byteOffset": 323424,
      "componentType": 5126,
      "count": 4680,
      "max": [
        0.9998655915260315,
        0.999294638633728,
        0.9996665120124817
      ],
      "min": [
        -0.9998844861984253,
        -0.9993710517883301,
        -0.999017059803009
      ],
      "type": "VEC3"
    },
    {
      "bufferView": 1,
      "byteOffset": 89088,
      "componentType": 5126,
      "count": 4680,
      "max": [
        1.0,
        1.0
      ],
      "min": [
        0.0,
        0.0
      ],
      "type": "VEC2"
    },
    {
      "bufferView": 0,
      "byteOffset": 251136,
      "componentType": 5125,
      "count": 25704,
      "type": "SCALAR"
    }
  ],
  "asset": {
    "extras": {
      "author": "aniljaco (https://sketchfab.com/aniljaco)",
      "license": "CC-BY-4.0 (http://creativecommons.org/licenses/by/4.0/)",
      "source": "https://sketchfab.com/3d-models/baloons--anil-c0b796c8756d451a8fef4e5c12cb867a",
      "title": "Baloons_ Anil"
    },
    "generator": "Sketchfab-12.67.0",
    "version": "2.0"
  },
  "bufferViews": [
    {
      "buffer": 0,
      "byteLength": 353952,
      "name": "floatBufferViews",
      "target": 34963
    },
    {
      "buffer": 0,
      "byteLength": 126528,
      "byteOffset": 353952,
      "byteStride": 8,
      "name": "floatBufferViews",
      "target": 34962
    },
    {
      "buffer": 0,
      "byteLength": 379584,
      "byteOffset": 480480,
      "byteStride": 12,
      "name": "floatBufferViews",
      "target": 34962
    }
  ],
  "buffers": [
    {
      "byteLength": 860064,
      "uri": "scene.bin"
    }
  ],
  "materials": [
    {
      "doubleSided": true,
      "name": "Material",
      "pbrMetallicRoughness": {
        "baseColorFactor": [
          0.7934452378357434,
          0.02587380956262643,
          0.02587380956262643,
          1.0
        ],
        "metallicFactor": 0.0,
        "roughnessFactor": 0.16460888444750915
      }
    },
    {
      "doubleSided": true,
      "name": "Material.001",
      "pbrMetallicRoughness": {
        "baseColorFactor": [
          0.0,
          0.46385060502359604,
          1.0,
          1.0
        ],
        "metallicFactor": 0.0,
        "roughnessFactor": 0.11002803504820172
      }
    },
    {
      "doubleSided": true,
      "name": "Material.002",
      "pbrMetallicRoughness": {
        "baseColorFactor": [
          0.052799206854979734,
          1.0,
          0.0,
          1.0
        ],
        "metallicFactor": 0.0,
        "roughnessFactor": 0.11002803504820172
      }
    },
    {
      "doubleSided": true,
      "name": "Material.003",
      "pbrMetallicRoughness": {
        "metallicFactor": 0.0,
        "roughnessFactor": 0.6
      }
    }
  ],
  "meshes": [
    {
      "name": "Object_0",
      "primitives": [
        {
          "attributes": {
            "NORMAL": 1,
            "POSITION": 0,
            "TEXCOORD_0": 2
          },
          "indices": 3,
          "material": 0,
          "mode": 4
        }
      ]
    },
    {
      "name": "Object_1",
      "primitives": [
        {
          "attributes": {
            "NORMAL": 5,
            "POSITION": 4,
            "TEXCOORD_0": 6
          },
          "indices": 7,
          "material": 1,
          "mode": 4
        }
      ]
    },
    {
      "name": "Object_2",
      "primitives": [
        {
          "attributes": {
            "NORMAL": 9,
            "POSITION": 8,
            "TEXCOORD_0": 10
          },
          "indices": 11,
          "material": 2,
          "mode": 4
        }
      ]
    },
    {
      "name": "Object_3",
      "primitives": [
        {
          "attributes": {
            "NORMAL": 13,
            "POSITION": 12,
            "TEXCOORD_0": 14
          },
          "indices": 15,
          "material": 3,
          "mode": 4
        }
      ]
    }
  ],
  "nodes": [
    {
      "children": [
        1
      ],
      "matrix": [
        1.0,
        0.0,
        0.0,
        0.0,
        0.0,
        2.220446049250313e-16,
        -1.0,
        0.0,
        0.0,
        1.0,
        2.220446049250313e-16,
        0.0,
        0.0,
        0.0,
        0.0,
        1.0
      ],
      "name": "Sketchfab_model"
    },
    {
      "children": [
        2,
        3,
        4,
        5
      ],
      "name": "baloons.obj.cleaner.materialmerger.gles"
    },
    {
      "mesh": 0,
      "name": "Object_2"
    },
    {
      "mesh": 1,
      "name": "Object_3"
    },
    {
      "mesh": 2,
      "name": "Object_4"
    },
    {
      "mesh": 3,
      "name": "Object_5"
    }
  ],
  "scene": 0,
  "scenes": [
    {
      "name": "Sketchfab_Scene",
      "nodes": [
        0
      ]
    }
  ]
}
