{
  "accessors": [
    {
      "bufferView": 2,
      "componentType": 5126,
      "count": 745,
      "max": [
        1.03251314163208,
        1.6138584613800049,
        1.03251314163208
      ],
      "min": [
        -1.03251314163208,
        0.0,
        -1.03251314163208
      ],
      "type": "VEC3"
    },
    {
      "bufferView": 2,
      "byteOffset": 8940,
      "componentType": 5126,
      "count": 745,
      "max": [
        0.9920752644538879,
        0.9949304461479187,
        0.9920752644538879
      ],
      "min": [
        -0.9920752644538879,
        -1.0,
        -0.9920752644538879
      ],
      "type": "VEC3"
    },
    {
      "bufferView": 1,
      "componentType": 5126,
      "count": 745,
      "max": [
        0.9998261332511902,
        0.9155886173248291
      ],
      "min": [
        0.00017374753952026367,
        0.00017374753952026367
      ],
      "type": "VEC2"
    },
    {
      "bufferView": 1,
      "byteOffset": 5960,
      "componentType": 5126,
      "count": 745,
      "max": [
        0.9998261332511902,
        0.9155886173248291
      ],
      "min": [
        0.00017374753952026367,
        0.00017374753952026367
      ],
      "type": "VEC2"
    },
    {
      "bufferView": 0,
      "componentType": 5125,
      "count": 2784,
      "type": "SCALAR"
    },
    {
      "bufferView": 2,
      "byteOffset": 17880,
      "componentType": 5126,
      "count": 9,
      "max": [
        0.9952391982078552,
        1.434398889541626,
        0.9952391982078552
      ],
      "min": [
        -0.9952391982078552,
        1.3269968032836914,
        -0.9952391982078552
      ],
      "type": "VEC3"
    },
    {
      "bufferView": 2,
      "byteOffset": 17988,
      "componentType": 5126,
      "count": 9,
      "max": [
        0.07608271390199661,
        1.0,
        0.07608271390199661
      ],
      "min": [
        -0.07608271390199661,
        0.9942315816879272,
        -0.07608271390199661
      ],
      "type": "VEC3"
    },
    {
      "bufferView": 1,
      "byteOffset": 11920,
      "componentType": 5126,
      "count": 9,
      "max": [
        0.7430081367492676,
        0.7430080771446228
      ],
      "min": [
        0.2569918632507324,
        0.2569918632507324
      ],
      "type": "VEC2"
    },
    {
      "bufferView": 1,
      "byteOffset": 11992,
      "componentType": 5126,
      "count": 9,
      "max": [
        0.7430081367492676,
        0.7430080771446228
      ],
      "min": [
        0.2569918632507324,
        0.2569918632507324
      ],
      "type": "VEC2"
    },
    {
      "bufferView": 0,
      "byteOffset": 11136,
      "componentType": 5125,
      "count": 24,
      "type": "SCALAR"
    },
    {
      "bufferView": 2,
      "byteOffset": 18096,
      "componentType": 5126,
      "count": 126,
      "max": [
        0.745112419128418,
        2.7562458515167236,
        0.8696679472923279
      ],
      "min": [
        -1.0911356210708618,
        1.2198235988616943,
        -0.8027327060699463
      ],
      "type": "VEC3"
    },
    {
      "bufferView": 2,
      "byteOffset": 19608,
      "componentType": 5126,
      "count": 126,
      "max": [
        0.9711241722106934,
        0.8306593894958496,
        0.8854312896728516
      ],
      "min": [
        -0.9411740303039551,
        0.23252657055854797,
        -0.9497951865196228
      ],
      "type": "VEC3"
    },
    {
      "bufferView": 1,
      "byteOffset": 12064,
      "componentType": 5126,
      "count": 126,
      "max": [
        0.2980809509754181,
        0.3355364203453064
      ],
      "min": [
        0.18083199858665466,
        0.12696363031864166
      ],
      "type": "VEC2"
    },
    {
      "bufferView": 1,
      "byteOffset": 13072,
      "componentType": 5126,
      "count": 126,
      "max": [
        0.2980809509754181,
        0.3355364203453064
      ],
      "min": [
        0.18083199858665466,
        0.12696363031864166
      ],
      "type": "VEC2"
    },
    {
      "bufferView": 0,
      "byteOffset": 11232,
      "componentType": 5125,
      "count": 336,
      "type": "SCALAR"
    },
    {
      "bufferView": 2,
      "byteOffset": 21120,
      "componentType": 5126,
      "count": 32,
      "max": [
        1.1291522979736328,
        3.6144981384277344,
        1.0277515649795532
      ],
      "min": [
        -0.9313471913337708,
        2.374716281890869,
        -0.8594161868095398
      ],
      "type": "VEC3"
    },
    {
      "bufferView": 2,
      "byteOffset": 21504,
      "componentType": 5126,
      "count": 32,
      "max": [
        0.8062576055526733,
        0.9351308345794678,
        0.5833728909492493
      ],
      "min": [
        -0.8669289350509644,
        0.4643193781375885,
        -0.4778384268283844
      ],
      "type": "VEC3"
    },
    {
      "bufferView": 1,
      "byteOffset": 14080,
      "componentType": 5126,
      "count": 32,
      "max": [
        0.7363466024398804,
        0.9023652076721191
      ],
      "min": [
        0.32528990507125854,
        0.38278263807296753
      ],
      "type": "VEC2"
    },
    {
      "bufferView": 1,
      "byteOffset": 14336,
      "componentType": 5126,
      "count": 32,
      "max": [
        0.7363466024398804,
        0.9023652076721191
      ],
      "min": [
        0.32528990507125854,
        0.38278263807296753
      ],
      "type": "VEC2"
    },
    {
      "bufferView": 0,
      "byteOffset": 12576,
      "componentType": 5125,
      "count": 132,
      "type": "SCALAR"
    },
    {
      "bufferView": 2,
      "byteOffset": 21888,
      "componentType": 5126,
      "count": 24,
      "max": [
        0.2136995643377304,
        2.7926836013793945,
        0.07735943049192429
      ],
      "min": [
        -0.42674222588539124,
        1.2857756614685059,
        -0.2608298063278198
      ],
      "type": "VEC3"
    },
    {
      "bufferView": 2,
      "byteOffset": 22176,
      "componentType": 5126,
      "count": 24,
      "max": [
        0.9864406585693359,
        0.13950371742248535,
        0.9526376128196716
      ],
      "min": [
        -0.9688417315483093,
        -0.15119363367557526,
        -0.8789443969726563
      ],
      "type": "VEC3"
    },
    {
      "bufferView": 1,
      "byteOffset": 14592,
      "componentType": 5126,
      "count": 24,
      "max": [
        0.1572207361459732,
        0.8186812400817871
      ],
      "min": [
        0.02820839174091816,
        0.6862754225730896
      ],
      "type": "VEC2"
    },
    {
      "bufferView": 0,
      "byteOffset": 13104,
      "componentType": 5125,
      "count": 36,
      "type": "SCALAR"
    }
  ],
  "asset": {
    "extras": {
      "author": "Dmitriy Nikonov (https://sketchfab.com/dimanikonov)",
      "license": "CC-BY-4.0 (http://creativecommons.org/licenses/by/4.0/)",
      "source": "https://sketchfab.com/3d-models/flower-in-a-pot-ff5c136753214751904c65a92056ce02",
      "title": "Flower in a pot"
    },
    "generator": "Sketchfab-12.67.0",
    "version": "2.0"
  },
  "bufferViews": [
    {
      "buffer": 0,
      "byteLength": 13248,
      "name": "floatBufferViews",
      "target": 34963
    },
    {
      "buffer": 0,
      "byteLength": 14784,
      "byteOffset": 13248,
      "byteStride": 8,
      "name": "floatBufferViews",
      "target": 34962
    },
    {
      "buffer": 0,
      "byteLength": 22464,
      "byteOffset": 28032,
      "byteStride": 12,
      "name": "floatBufferViews",
      "target": 34962
    }
  ],
  "buffers": [
    {
      "byteLength": 50496,
      "uri": "scene.bin"
    }
  ],
  "extensionsUsed": [
    "KHR_materials_transmission"
  ],
  "images": [
    {
      "uri": "textures/Material.001_baseColor.jpeg"
    },
    {
      "uri": "textures/Material.002_baseColor.jpeg"
    },
    {
      "uri": "textures/Material.004_baseColor.png"
    },
    {
      "uri": "textures/Material_baseColor.png"
    },
    {
      "uri": "textures/Material.003_baseColor.jpeg"
    }
  ],
  "materials": [
    {
      "doubleSided": true,
      "name": "Material.001",
      "pbrMetallicRoughness": {
        "baseColorTexture": {
          "index": 0
        },
        "metallicFactor": 0.0,
        "roughnessFactor": 0.4571545397612924
      }
    },
    {
      "doubleSided": true,
      "name": "Material.002",
      "pbrMetallicRoughness": {
        "baseColorTexture": {
          "index": 1
        },
        "metallicFactor": 0.0,
        "roughnessFactor": 0.7009299624853316
      }
    },
    {
      "alphaMode": "MASK",
      "doubleSided": true,
      "extensions": {
        "KHR_materials_transmission": {
          "transmissionFactor": 0.010000000000000009
        }
      },
      "name": "Material.004",
      "pbrMetallicRoughness": {
        "baseColorFactor": [
          1.0,
          1.0,
          1.0,
          0.99
        ],
        "baseColorTexture": {
          "index": 2
        },
        "metallicFactor": 0.0,
        "roughnessFactor": 0.8286135989152972
      }
    },
    {
      "alphaMode": "MASK",
      "doubleSided": true,
      "extensions": {
        "KHR_materials_transmission": {
          "transmissionFactor": 0.050000000000000044
        }
      },
      "name": "Material",
      "pbrMetallicRoughness": {
        "baseColorFactor": [
          1.0,
          0.0,
          0.9602083826516903,
          0.95
        ],
        "baseColorTexture": {
          "index": 3
        },
        "metallicFactor": 0.0,
        "roughnessFactor": 0.829
      }
    },
    {
      "doubleSided": true,
      "name": "Material.003",
      "pbrMetallicRoughness": {
        "baseColorTexture": {
          "index": 4
        },
        "metallicFactor": 0.0,
        "roughnessFactor": 0.829
      }
    }
  ],
  "meshes": [
    {
      "name": "Object_0",
      "primitives": [
        {
          "attributes": {
            "NORMAL": 1,
            "POSITION": 0,
            "TEXCOORD_0": 2,
            "TEXCOORD_1": 3
          },
          "indices": 4,
          "material": 0,
          "mode": 4
        }
      ]
    },
    {
      "name": "Object_1",
      "primitives": [
        {
          "attributes": {
            "NORMAL": 6,
            "POSITION": 5,
            "TEXCOORD_0": 7,
            "TEXCOORD_1": 8
          },
          "indices": 9,
          "material": 1,
          "mode": 4
        }
      ]
    },
    {
      "name": "Object_2",
      "primitives": [
        {
          "attributes": {
            "NORMAL": 11,
            "POSITION": 10,
            "TEXCOORD_0": 12,
            "TEXCOORD_1": 13
          },
          "indices": 14,
          "material": 2,
          "mode": 4
        }
      ]
    },
    {
      "name": "Object_3",
      "primitives": [
        {
          "attributes": {
            "NORMAL": 16,
            "POSITION": 15,
            "TEXCOORD_0": 17,
            "TEXCOORD_1": 18
          },
          "indices": 19,
          "material": 3,
          "mode": 4
        }
      ]
    },
    {
      "name": "Object_4",
      "primitives": [
        {
          "attributes": {
            "NORMAL": 21,
            "POSITION": 20,
            "TEXCOORD_0": 22
          },
          "indices": 23,
          "material": 4,
          "mode": 4
        }
      ]
    }
  ],
  "nodes": [
    {
      "children": [
        1
      ],
      "matrix": [
        0.1297818273305893,
        0.0,
        0.0,
        0.0,
        0.0,
        2.881735457606933e-17,
        -0.1297818273305893,
        0.0,
        0.0,
        0.1297818273305893,
        2.881735457606933e-17,
        0.0,
        0.0,
        0.0,
        0.0,
        1.0
      ],
      "name": "Sketchfab_model"
    },
    {
      "children": [
        2
      ],
      "name": "root"
    },
    {
      "children": [
        3
      ],
      "matrix": [
        1.0,
        0.0,
        0.0,
        0.0,
        0.0,
        2.220446049250313e-16,
        1.0,
        0.0,
        0.0,
        -1.0,
        2.220446049250313e-16,
        0.0,
        0.0,
        0.0,
        0.0,
        1.0
      ],
      "name": "GLTF_SceneRootNode"
    },
    {
      "children": [
        4,
        5,
        6,
        7,
        8
      ],
      "name": "Cylinder_0"
    },
    {
      "mesh": 0,
      "name": "Object_4"
    },
    {
      "mesh": 1,
      "name": "Object_5"
    },
    {
      "mesh": 2,
      "name": "Object_6"
    },
    {
      "mesh": 3,
      "name": "Object_7"
    },
    {
      "mesh": 4,
      "name": "Object_8"
    }
  ],
  "samplers": [
    {
      "magFilter": 9729,
      "minFilter": 9987,
      "wrapS": 10497,
      "wrapT": 10497
    }
  ],
  "scene": 0,
  "scenes": [
    {
      "name": "Sketchfab_Scene",
      "nodes": [
        0
      ]
    }
  ],
  "textures": [
    {
      "sampler": 0,
      "source": 0
    },
    {
      "sampler": 0,
      "source": 1
    },
    {
      "sampler": 0,
      "source": 2
    },
    {
      "sampler": 0,
      "source": 3
    },
    {
      "sampler": 0,
      "source": 4
    }
  ]
}
