{
  "accessors": [
    {
      "bufferView": 2,
      "componentType": 5126,
      "count": 2741,
      "max": [
        0.005483701825141907,
        0.0211628507822752,
        0.0020281649194657803
      ],
      "min": [
        -0.0038626398891210556,
        7.271655340446159e-05,
        -0.0018189320107921958
      ],
      "type": "VEC3"
    },
    {
      "bufferView": 2,
      "byteOffset": 32892,
      "componentType": 5126,
      "count": 2741,
      "max": [
        0.9999698400497437,
        0.9988234639167786,
        0.9999114274978638
      ],
      "min": [
        -0.9999698400497437,
        -1.0,
        -0.9999189376831055
      ],
      "type": "VEC3"
    },
    {
      "bufferView": 1,
      "componentType": 5126,
      "count": 2741,
      "max": [
        0.9858397841453552,
        0.9924125671386719
      ],
      "min": [
        0.0182342492043972,
        0.014648377895355225
      ],
      "type": "VEC2"
    },
    {
      "bufferView": 0,
      "componentType": 5125,
      "count": 13032,
      "type": "SCALAR"
    },
    {
      "bufferView": 2,
      "byteOffset": 65784,
      "componentType": 5126,
      "count": 2167,
      "max": [
        0.7143650054931641,
        0.16850599646568298,
        -0.005031729117035866
      ],
      "min": [
        -0.7146378755569458,
        -0.09177304059267044,
        -1.2654759883880615
      ],
      "type": "VEC3"
    },
    {
      "bufferView": 2,
      "byteOffset": 91788,
      "componentType": 5126,
      "count": 2167,
      "max": [
        0.9994964599609375,
        0.9996579885482788,
        0.9999513030052185
      ],
      "min": [
        -0.9994966983795166,
        -0.9986558556556702,
        -0.9999948143959045
      ],
      "type": "VEC3"
    },
    {
      "bufferView": 1,
      "byteOffset": 21928,
      "componentType": 5126,
      "count": 2167,
      "max": [
        0.49577370285987854,
        0.9940100312232971
      ],
      "min": [
        0.010076659731566906,
        0.23813778162002563
      ],
      "type": "VEC2"
    },
    {
      "bufferView": 0,
      "byteOffset": 52128,
      "componentType": 5125,
      "count": 9720,
      "type": "SCALAR"
    },
    {
      "bufferView": 2,
      "byteOffset": 117792,
      "componentType": 5126,
      "count": 3087,
      "max": [
        0.6113507151603699,
        0.14776620268821716,
        -0.570375382900238
      ],
      "min": [
        -0.6113507151603699,
        -0.15200799703598022,
        -1.323333978652954
      ],
      "type": "VEC3"
    },
    {
      "bufferView": 2,
      "byteOffset": 154836,
      "componentType": 5126,
      "count": 3087,
      "max": [
        0.9995237588882446,
        0.9991334676742554,
        0.9999343156814575
      ],
      "min": [
        -0.9995237588882446,
        -0.9990417957305908,
        -0.9999773502349854
      ],
      "type": "VEC3"
    },
    {
      "bufferView": 1,
      "byteOffset": 39264,
      "componentType": 5126,
      "count": 3087,
      "max": [
        0.9982427954673767,
        0.9954991936683655
      ],
      "min": [
        -0.8083965182304382,
        0.006441295146942139
      ],
      "type": "VEC2"
    },
    {
      "bufferView": 0,
      "byteOffset": 91008,
      "componentType": 5125,
      "count": 10464,
      "type": "SCALAR"
    },
    {
      "bufferView": 2,
      "byteOffset": 191880,
      "componentType": 5126,
      "count": 3202,
      "max": [
        0.12808090448379517,
        0.12805019319057465,
        -1.300812005996704
      ],
      "min": [
        -0.1609351933002472,
        -0.14557330310344696,
        -1.6006699800491333
      ],
      "type": "VEC3"
    },
    {
      "bufferView": 2,
      "byteOffset": 230304,
      "componentType": 5126,
      "count": 3202,
      "max": [
        0.9993114471435547,
        0.9997996091842651,
        0.9983498454093933
      ],
      "min": [
        -0.9993119835853577,
        -0.9990124702453613,
        -0.9996764063835144
      ],
      "type": "VEC3"
    },
    {
      "bufferView": 1,
      "byteOffset": 63960,
      "componentType": 5126,
      "count": 3202,
      "max": [
        0.9929159879684448,
        0.9923296570777893
      ],
      "min": [
        -0.9929208755493164,
        0.009764015674591064
      ],
      "type": "VEC2"
    },
    {
      "bufferView": 0,
      "byteOffset": 132864,
      "componentType": 5125,
      "count": 12450,
      "type": "SCALAR"
    },
    {
      "bufferView": 2,
      "byteOffset": 268728,
      "componentType": 5126,
      "count": 1620,
      "max": [
        0.09959617257118225,
        0.11263269931077957,
        -1.196287989616394
      ],
      "min": [
        -0.0995950773358345,
        -0.08799106627702713,
        -1.5313470363616943
      ],
      "type": "VEC3"
    },
    {
      "bufferView": 2,
      "byteOffset": 288168,
      "componentType": 5126,
      "count": 1620,
      "max": [
        0.9999765753746033,
        1.0,
        0.9999812245368958
      ],
      "min": [
        -0.999976634979248,
        -0.9993813037872314,
        -0.9999973177909851
      ],
      "type": "VEC3"
    },
    {
      "bufferView": 1,
      "byteOffset": 89576,
      "componentType": 5126,
      "count": 1620,
      "max": [
        0.9660202264785767,
        0.9827213883399963
      ],
      "min": [
        -0.9944729804992676,
        0.0060471296310424805
      ],
      "type": "VEC2"
    },
    {
      "bufferView": 0,
      "byteOffset": 182664,
      "componentType": 5125,
      "count": 6510,
      "type": "SCALAR"
    }
  ],
  "asset": {
    "extras": {
      "author": "MUSUS (https://sketchfab.com/MUSUS)",
      "license": "CC-BY-4.0 (http://creativecommons.org/licenses/by/4.0/)",
      "source": "https://sketchfab.com/3d-models/yandere-child-2-fa98e969f6d74092a1e40e1bf4e34194",
      "title": "Yandere child 2"
    },
    "generator": "Sketchfab-14.5.0",
    "version": "2.0"
  },
  "bufferViews": [
    {
      "buffer": 0,
      "byteLength": 208704,
      "name": "floatBufferViews",
      "target": 34963
    },
    {
      "buffer": 0,
      "byteLength": 102536,
      "byteOffset": 208704,
      "byteStride": 8,
      "name": "floatBufferViews",
      "target": 34962
    },
    {
      "buffer": 0,
      "byteLength": 307608,
      "byteOffset": 311240,
      "byteStride": 12,
      "name": "floatBufferViews",
      "target": 34962
    }
  ],
  "buffers": [
    {
      "byteLength": 618848,
      "uri": "scene.bin"
    }
  ],
  "images": [
    {
      "uri": "textures/Default_OBJ.002_baseColor.png"
    },
    {
      "uri": "textures/Default_OBJ.004_baseColor.png"
    },
    {
      "uri": "textures/Default_OBJ.006_baseColor.png"
    }
  ],
  "materials": [
    {
      "doubleSided": true,
      "name": "Default_OBJ.001",
      "pbrMetallicRoughness": {
        "baseColorFactor": [
          0.8,
          0.8,
          0.8,
          1.0
        ],
        "metallicFactor": 0.0,
        "roughnessFactor": 0.5
      }
    },
    {
      "doubleSided": true,
      "name": "Default_OBJ.002",
      "pbrMetallicRoughness": {
        "baseColorTexture": {
          "index": 0
        },
        "metallicFactor": 0.0,
        "roughnessFactor": 0.9
      }
    },
    {
      "doubleSided": true,
      "name": "Default_OBJ.003",
      "pbrMetallicRoughness": {
        "baseColorTexture": {
          "index": 0
        },
        "metallicFactor": 0.0,
        "roughnessFactor": 0.9
      }
    },
    {
      "doubleSided": true,
      "name": "Default_OBJ.004",
      "pbrMetallicRoughness": {
        "baseColorTexture": {
          "index": 1
        },
        "metallicFactor": 0.0,
        "roughnessFactor": 0.9
      }
    },
    {
      "doubleSided": true,
      "name": "Default_OBJ.006",
      "pbrMetallicRoughness": {
        "baseColorTexture": {
          "index": 2
        },
        "metallicFactor": 0.0,
        "roughnessFactor": 0.9
      }
    }
  ],
  "meshes": [
    {
      "name": "Object_0",
      "primitives": [
        {
          "attributes": {
            "NORMAL": 1,
            "POSITION": 0,
            "TEXCOORD_0": 2
          },
          "indices": 3,
          "material": 0,
          "mode": 4
        }
      ]
    },
    {
      "name": "Object_1",
      "primitives": [
        {
          "attributes": {
            "NORMAL": 5,
            "POSITION": 4,
            "TEXCOORD_0": 6
          },
          "indices": 7,
          "material": 1,
          "mode": 4
        }
      ]
    },
    {
      "name": "Object_2",
      "primitives": [
        {
          "attributes": {
            "NORMAL": 9,
            "POSITION": 8,
            "TEXCOORD_0": 10
          },
          "indices": 11,
          "material": 2,
          "mode": 4
        }
      ]
    },
    {
      "name": "Object_3",
      "primitives": [
        {
          "attributes": {
            "NORMAL": 13,
            "POSITION": 12,
            "TEXCOORD_0": 14
          },
          "indices": 15,
          "material": 3,
          "mode": 4
        }
      ]
    },
    {
      "name": "Object_4",
      "primitives": [
        {
          "attributes": {
            "NORMAL": 17,
            "POSITION": 16,
            "TEXCOORD_0": 18
          },
          "indices": 19,
          "material": 4,
          "mode": 4
        }
      ]
    }
  ],
  "nodes": [
    {
      "children": [
        1
      ],
      "matrix": [
        1.0,
        0.0,
        0.0,
        0.0,
        0.0,
        2.220446049250313e-16,
        -1.0,
        0.0,
        0.0,
        1.0,
        2.220446049250313e-16,
        0.0,
        0.0,
        0.0,
        0.0,
        1.0
      ],
      "name": "Sketchfab_model"
    },
    {
      "children": [
        2
      ],
      "name": "root"
    },
    {
      "children": [
        3,
        5,
        7,
        9,
        11
      ],
      "matrix": [
        1.0,
        0.0,
        0.0,
        0.0,
        0.0,
        2.220446049250313e-16,
        1.0,
        0.0,
        0.0,
        -1.0,
        2.220446049250313e-16,
        0.0,
        0.0,
        0.0,
        0.0,
        1.0
      ],
      "name": "GLTF_SceneRootNode"
    },
    {
      "children": [
        4
      ],
      "matrix": [
        1.0,
        0.0,
        0.0,
        0.0,
        0.0,
        -1.685873969314855e-07,
        0.9999999999999858,
        0.0,
        0.0,
        -0.9999999999999858,
        -1.685873969314855e-07,
        0.0,
        0.0,
        0.0,
        0.0,
        1.0
      ],
      "name": "cloth_158"
    },
    {
      "mesh": 0,
      "name": "Object_4"
    },
    {
      "children": [
        6
      ],
      "matrix": [
        1.0,
        0.0,
        0.0,
        0.0,
        0.0,
        -1.685873969314855e-07,
        0.9999999999999858,
        0.0,
        0.0,
        -0.9999999999999858,
        -1.685873969314855e-07,
        0.0,
        0.0,
        0.0,
        0.0,
        1.0
      ],
      "name": "yandereChild_Body_Mesh_159"
    },
    {
      "mesh": 1,
      "name": "Object_6"
    },
    {
      "children": [
        8
      ],
      "matrix": [
        1.0,
        0.0,
        0.0,
        0.0,
        0.0,
        -1.685873969314855e-07,
        0.9999999999999858,
        0.0,
        0.0,
        -0.9999999999999858,
        -1.685873969314855e-07,
        0.0,
        0.0,
        0.0,
        0.0,
        1.0
      ],
      "name": "yandereChild_Clothes_Mesh_160"
    },
    {
      "mesh": 2,
      "name": "Object_8"
    },
    {
      "children": [
        10
      ],
      "matrix": [
        1.0,
        0.0,
        0.0,
        0.0,
        0.0,
        -1.685873969314855e-07,
        0.9999999999999858,
        0.0,
        0.0,
        -0.9999999999999858,
        -1.685873969314855e-07,
        0.0,
        0.0,
        0.0,
        0.0,
        1.0
      ],
      "name": "yandereChild_Hair_Mesh_161"
    },
    {
      "mesh": 3,
      "name": "Object_10"
    },
    {
      "children": [
        12
      ],
      "matrix": [
        1.0,
        0.0,
        0.0,
        0.0,
        0.0,
        -1.685873969314855e-07,
        0.9999999999999858,
        0.0,
        0.0,
        -0.9999999999999858,
        -1.685873969314855e-07,
        0.0,
        0.0,
        0.0,
        0.0,
        1.0
      ],
      "name": "yandereChild_Head_Mesh_162"
    },
    {
      "mesh": 4,
      "name": "Object_12"
    }
  ],
  "samplers": [
    {
      "magFilter": 9729,
      "minFilter": 9987,
      "wrapS": 10497,
      "wrapT": 10497
    }
  ],
  "scene": 0,
  "scenes": [
    {
      "name": "Sketchfab_Scene",
      "nodes": [
        0
      ]
    }
  ],
  "textures": [
    {
      "sampler": 0,
      "source": 0
    },
    {
      "sampler": 0,
      "source": 1
    },
    {
      "sampler": 0,
      "source": 2
    }
  ]
}
