{
  "accessors": [
    {
      "bufferView": 2,
      "componentType": 5126,
      "count": 296,
      "max": [
        12853.55078125,
        12853.55078125,
        -22623.24609375
      ],
      "min": [
        -12853.55078125,
        -12853.55078125,
        -31702.5
      ],
      "type": "VEC3"
    },
    {
      "bufferView": 2,
      "byteOffset": 3552,
      "componentType": 5126,
      "count": 296,
      "max": [
        0.928641676902771,
        0.9286417961120605,
        0.6657207012176514
      ],
      "min": [
        -0.928641676902771,
        -0.928641676902771,
        -0.9921612739562988
      ],
      "type": "VEC3"
    },
    {
      "bufferView": 1,
      "componentType": 5126,
      "count": 296,
      "max": [
        0.9335042238235474,
        0.9637210369110107
      ],
      "min": [
        0.007066100835800171,
        0.0016682446002960205
      ],
      "type": "VEC2"
    },
    {
      "bufferView": 0,
      "componentType": 5125,
      "count": 810,
      "type": "SCALAR"
    },
    {
      "bufferView": 2,
      "byteOffset": 7104,
      "componentType": 5126,
      "count": 602,
      "max": [
        12853.55078125,
        12853.55078125,
        10000.0
      ],
      "min": [
        -15861.96484375,
        -12853.55078125,
        -25292.072265625
      ],
      "type": "VEC3"
    },
    {
      "bufferView": 2,
      "byteOffset": 14328,
      "componentType": 5126,
      "count": 602,
      "max": [
        1.0,
        1.0,
        0.9850454926490784
      ],
      "min": [
        -1.0,
        -1.0,
        -0.9983049035072327
      ],
      "type": "VEC3"
    },
    {
      "bufferView": 1,
      "byteOffset": 2368,
      "componentType": 5126,
      "count": 602,
      "max": [
        0.9822410941123962,
        1.0
      ],
      "min": [
        0.007066100835800171,
        0.0016682446002960205
      ],
      "type": "VEC2"
    },
    {
      "bufferView": 0,
      "byteOffset": 3240,
      "componentType": 5125,
      "count": 1560,
      "type": "SCALAR"
    }
  ],
  "asset": {
    "extras": {
      "author": "3Dexter (https://sketchfab.com/3Dexter3D)",
      "license": "CC-BY-4.0 (http://creativecommons.org/licenses/by/4.0/)",
      "source": "https://sketchfab.com/3d-models/prescription-pill-bottle-b06f10f8b7b64973ba8ecca08e28ee8a",
      "title": "Prescription Pill Bottle"
    },
    "generator": "Sketchfab-16.71.0",
    "version": "2.0"
  },
  "bufferViews": [
    {
      "buffer": 0,
      "byteLength": 9480,
      "name": "floatBufferViews",
      "target": 34963
    },
    {
      "buffer": 0,
      "byteLength": 7184,
      "byteOffset": 9480,
      "byteStride": 8,
      "name": "floatBufferViews",
      "target": 34962
    },
    {
      "buffer": 0,
      "byteLength": 21552,
      "byteOffset": 16664,
      "byteStride": 12,
      "name": "floatBufferViews",
      "target": 34962
    }
  ],
  "buffers": [
    {
      "byteLength": 38216,
      "uri": "scene.bin"
    }
  ],
  "images": [
    {
      "uri": "textures/Material.023_baseColor.png"
    }
  ],
  "materials": [
    {
      "doubleSided": true,
      "name": "Material.023",
      "pbrMetallicRoughness": {
        "baseColorTexture": {
          "index": 0
        },
        "metallicFactor": 0.0
      }
    }
  ],
  "meshes": [
    {
      "name": "Cylinder.002_Material.023_0",
      "primitives": [
        {
          "attributes": {
            "NORMAL": 1,
            "POSITION": 0,
            "TEXCOORD_0": 2
          },
          "indices": 3,
          "material": 0,
          "mode": 4
        }
      ]
    },
    {
      "name": "Cylinder.003_Material.023_0",
      "primitives": [
        {
          "attributes": {
            "NORMAL": 5,
            "POSITION": 4,
            "TEXCOORD_0": 6
          },
          "indices": 7,
          "material": 0,
          "mode": 4
        }
      ]
    }
  ],
  "nodes": [
    {
      "children": [
        1
      ],
      "matrix": [
        4.440892098500626e-16,
        -0.005324019119143264,
        -0.9999858140945435,
        0.0,
        -1.0,
        -6.245004513516496e-17,
        -4.440892098500626e-16,
        0.0,
        -5.984795992119984e-17,
        0.9999858140945435,
        -0.005324019119143264,
        0.0,
        0.0,
        0.0,
        0.0,
        1.0
      ],
      "name": "Sketchfab_model"
    },
    {
      "children": [
        2
      ],
      "matrix": [
        0.009999999776482582,
        0.0,
        0.0,
        0.0,
        0.0,
        0.0,
        0.009999999776482582,
        0.0,
        0.0,
        -0.009999999776482582,
        0.0,
        0.0,
        0.0,
        0.0,
        0.0,
        1.0
      ],
      "name": "PillBottle.fbx"
    },
    {
      "children": [
        3,
        5
      ],
      "name": "RootNode"
    },
    {
      "children": [
        4
      ],
      "matrix": [
        0.0038493871688842773,
        0.0,
        0.0,
        0.0,
        0.0,
        1.2083858463693992e-09,
        0.0038493864703921564,
        0.0,
        0.0,
        -0.0038493864703921564,
        1.2083858463693992e-09,
        0.0,
        0.0,
        0.0,
        0.0,
        1.0
      ],
      "name": "Cylinder.002"
    },
    {
      "mesh": 0,
      "name": "Cylinder.002_Material.023_0"
    },
    {
      "children": [
        6
      ],
      "matrix": [
        0.0038493871688842773,
        0.0,
        0.0,
        0.0,
        0.0,
        1.2083858463693992e-09,
        0.0038493864703921564,
        0.0,
        0.0,
        -0.0038493864703921564,
        1.2083858463693992e-09,
        0.0,
        0.0,
        0.0,
        0.0,
        1.0
      ],
      "name": "Cylinder.003"
    },
    {
      "mesh": 1,
      "name": "Cylinder.003_Material.023_0"
    }
  ],
  "samplers": [
    {
      "magFilter": 9729,
      "minFilter": 9987,
      "wrapS": 10497,
      "wrapT": 10497
    }
  ],
  "scene": 0,
  "scenes": [
    {
      "name": "Sketchfab_Scene",
      "nodes": [
        0
      ]
    }
  ],
  "textures": [
    {
      "sampler": 0,
      "source": 0
    }
  ]
}
