{
  "accessors": [
    {
      "bufferView": 2,
      "componentType": 5126,
      "count": 13611,
      "max": [
        6.915002346038818,
        4.219350337982178,
        5.144967079162598
      ],
      "min": [
        -1.8549975156784058,
        -1.309999942779541,
        -1.7750109434127808
      ],
      "type": "VEC3"
    },
    {
      "bufferView": 2,
      "byteOffset": 163332,
      "componentType": 5126,
      "count": 13611,
      "max": [
        1.0,
        1.0,
        1.0
      ],
      "min": [
        -1.0,
        -1.0,
        -1.0
      ],
      "type": "VEC3"
    },
    {
      "bufferView": 1,
      "componentType": 5126,
      "count": 13611,
      "max": [
        1.0,
        0.9999815821647644
      ],
      "min": [
        0.0,
        0.0016842484474182129
      ],
      "type": "VEC2"
    },
    {
      "bufferView": 1,
      "byteOffset": 108888,
      "componentType": 5126,
      "count": 13611,
      "max": [
        1450.049560546875,
        366.2127685546875
      ],
      "min": [
        -574.9998168945313,
        -1052.257568359375
      ],
      "type": "VEC2"
    },
    {
      "bufferView": 0,
      "componentType": 5125,
      "count": 23283,
      "type": "SCALAR"
    },
    {
      "bufferView": 2,
      "byteOffset": 326664,
      "componentType": 5126,
      "count": 296,
      "max": [
        6.904599666595459,
        3.8590087890625,
        4.371993541717529
      ],
      "min": [
        2.1354076862335205,
        -0.6189990043640137,
        -1.7644225358963013
      ],
      "type": "VEC3"
    },
    {
      "bufferView": 2,
      "byteOffset": 330216,
      "componentType": 5126,
      "count": 296,
      "max": [
        1.0,
        1.0,
        1.0
      ],
      "min": [
        -1.0,
        -1.0,
        -1.0
      ],
      "type": "VEC3"
    },
    {
      "bufferView": 1,
      "byteOffset": 217776,
      "componentType": 5126,
      "count": 296,
      "max": [
        23.622047424316406,
        1.187226414680481
      ],
      "min": [
        -1.5801557302474976,
        -26.55905532836914
      ],
      "type": "VEC2"
    },
    {
      "bufferView": 0,
      "byteOffset": 93132,
      "componentType": 5125,
      "count": 420,
      "type": "SCALAR"
    },
    {
      "bufferView": 2,
      "byteOffset": 333768,
      "componentType": 5126,
      "count": 72,
      "max": [
        5.814030647277832,
        2.4200048446655273,
        1.9140063524246216
      ],
      "min": [
        2.315004825592041,
        -0.9014208912849426,
        -0.570025622844696
      ],
      "type": "VEC3"
    },
    {
      "bufferView": 2,
      "byteOffset": 334632,
      "componentType": 5126,
      "count": 72,
      "max": [
        1.0,
        1.0,
        1.0
      ],
      "min": [
        -1.0,
        -1.0,
        -1.0
      ],
      "type": "VEC3"
    },
    {
      "bufferView": 1,
      "byteOffset": 220144,
      "componentType": 5126,
      "count": 72,
      "max": [
        -3.597745418548584,
        115.90284729003906
      ],
      "min": [
        -353.500244140625,
        -132.5004119873047
      ],
      "type": "VEC2"
    },
    {
      "bufferView": 0,
      "byteOffset": 94812,
      "componentType": 5125,
      "count": 108,
      "type": "SCALAR"
    }
  ],
  "asset": {
    "extras": {
      "author": "SrMonteiro (https://sketchfab.com/crispimrafael)",
      "license": "CC-BY-4.0 (http://creativecommons.org/licenses/by/4.0/)",
      "source": "https://sketchfab.com/3d-models/duplex-70ab4f4164b54afbad87f174f8b285c1",
      "title": "Duplex"
    },
    "generator": "Sketchfab-17.8.0",
    "version": "2.0"
  },
  "bufferViews": [
    {
      "buffer": 0,
      "byteLength": 95244,
      "name": "floatBufferViews",
      "target": 34963
    },
    {
      "buffer": 0,
      "byteLength": 220720,
      "byteOffset": 95244,
      "byteStride": 8,
      "name": "floatBufferViews",
      "target": 34962
    },
    {
      "buffer": 0,
      "byteLength": 335496,
      "byteOffset": 315964,
      "byteStride": 12,
      "name": "floatBufferViews",
      "target": 34962
    }
  ],
  "buffers": [
    {
      "byteLength": 651460,
      "uri": "scene.bin"
    }
  ],
  "extensionsUsed": [
    "KHR_materials_specular"
  ],
  "images": [
    {
      "uri": "textures/baked_Material_-2147482674_emissive.jpeg"
    }
  ],
  "materials": [
    {
      "emissiveFactor": [
        1.0,
        1.0,
        1.0
      ],
      "emissiveTexture": {
        "index": 0
      },
      "extensions": {
        "KHR_materials_specular": {
          "specularColorFactor": [
            1.0,
            1.0,
            1.0
          ],
          "specularFactor": 0.0
        }
      },
      "name": "baked_Material_-2147482674",
      "pbrMetallicRoughness": {
        "baseColorFactor": [
          0.0,
          0.0,
          0.0,
          1.0
        ],
        "metallicFactor": 0.0
      }
    },
    {
      "alphaMode": "BLEND",
      "extensions": {
        "KHR_materials_specular": {
          "specularColorFactor": [
            1.0,
            1.0,
            1.0
          ],
          "specularFactor": 1.0
        }
      },
      "name": "vidro_ext",
      "pbrMetallicRoughness": {
        "baseColorFactor": [
          0.001,
          0.001,
          0.001,
          0.5
        ],
        "roughnessFactor": 0.0
      }
    },
    {
      "alphaMode": "BLEND",
      "extensions": {
        "KHR_materials_specular": {
          "specularColorFactor": [
            1.0,
            1.0,
            1.0
          ],
          "specularFactor": 1.0
        }
      },
      "name": "vidro_gc",
      "pbrMetallicRoughness": {
        "baseColorFactor": [
          0.001,
          0.001,
          0.001,
          0.5
        ],
        "roughnessFactor": 0.0
      }
    }
  ],
  "meshes": [
    {
      "name": "Object_0",
      "primitives": [
        {
          "attributes": {
            "NORMAL": 1,
            "POSITION": 0,
            "TEXCOORD_0": 2,
            "TEXCOORD_1": 3
          },
          "indices": 4,
          "material": 0,
          "mode": 4
        }
      ]
    },
    {
      "name": "Object_1",
      "primitives": [
        {
          "attributes": {
            "NORMAL": 6,
            "POSITION": 5,
            "TEXCOORD_0": 7
          },
          "indices": 8,
          "material": 1,
          "mode": 4
        }
      ]
    },
    {
      "name": "Object_2",
      "primitives": [
        {
          "attributes": {
            "NORMAL": 10,
            "POSITION": 9,
            "TEXCOORD_0": 11
          },
          "indices": 12,
          "material": 2,
          "mode": 4
        }
      ]
    }
  ],
  "nodes": [
    {
      "children": [
        1
      ],
      "matrix": [
        1.0,
        0.0,
        0.0,
        0.0,
        0.0,
        2.220446049250313e-16,
        -1.0,
        0.0,
        0.0,
        1.0,
        2.220446049250313e-16,
        0.0,
        0.0,
        0.0,
        0.0,
        1.0
      ],
      "name": "Sketchfab_model"
    },
    {
      "children": [
        2
      ],
      "name": "root"
    },
    {
      "children": [
        3,
        5,
        7
      ],
      "matrix": [
        1.0,
        0.0,
        0.0,
        0.0,
        0.0,
        2.220446049250313e-16,
        1.0,
        0.0,
        0.0,
        -1.0,
        2.220446049250313e-16,
        0.0,
        0.0,
        0.0,
        0.0,
        1.0
      ],
      "name": "GLTF_SceneRootNode"
    },
    {
      "children": [
        4
      ],
      "matrix": [
        1.0,
        0.0,
        0.0,
        0.0,
        0.0,
        1.0,
        0.0,
        0.0,
        0.0,
        0.0,
        1.0,
        0.0,
        28.906888961791992,
        1.292246699333191,
        -17.386838912963867,
        1.0
      ],
      "name": "Box029_0"
    },
    {
      "mesh": 0,
      "name": "Object_4"
    },
    {
      "children": [
        6
      ],
      "matrix": [
        1.0,
        0.0,
        0.0,
        0.0,
        0.0,
        1.0,
        0.0,
        0.0,
        0.0,
        0.0,
        1.0,
        0.0,
        28.906888961791992,
        1.292246699333191,
        -17.386838912963867,
        1.0
      ],
      "name": "Box034_1"
    },
    {
      "mesh": 1,
      "name": "Object_6"
    },
    {
      "children": [
        8
      ],
      "matrix": [
        1.0,
        0.0,
        0.0,
        0.0,
        0.0,
        1.0,
        0.0,
        0.0,
        0.0,
        0.0,
        1.0,
        0.0,
        28.906888961791992,
        1.292246699333191,
        -17.386838912963867,
        1.0
      ],
      "name": "Box037_2"
    },
    {
      "mesh": 2,
      "name": "Object_8"
    }
  ],
  "samplers": [
    {
      "magFilter": 9729,
      "minFilter": 9987,
      "wrapS": 10497,
      "wrapT": 10497
    }
  ],
  "scene": 0,
  "scenes": [
    {
      "name": "Sketchfab_Scene",
      "nodes": [
        0
      ]
    }
  ],
  "textures": [
    {
      "sampler": 0,
      "source": 0
    }
  ]
}
