{
  "accessors": [
    {
      "bufferView": 2,
      "componentType": 5126,
      "count": 65532,
      "max": [
        18.216655731201172,
        2.929264783859253,
        53.04732894897461
      ],
      "min": [
        -40.15648651123047,
        -0.13476252555847168,
        -9.040183067321777
      ],
      "type": "VEC3"
    },
    {
      "bufferView": 2,
      "byteOffset": 786384,
      "componentType": 5126,
      "count": 65532,
      "max": [
        0.9998502135276794,
        1.0,
        0.9999999403953552
      ],
      "min": [
        -0.9999535083770752,
        -1.0,
        -0.9999946355819702
      ],
      "type": "VEC3"
    },
    {
      "bufferView": 1,
      "componentType": 5126,
      "count": 65532,
      "max": [
        317.35723876953125,
        312.35723876953125
      ],
      "min": [
        -317.35723876953125,
        -317.35723876953125
      ],
      "type": "VEC2"
    },
    {
      "bufferView": 0,
      "componentType": 5125,
      "count": 373551,
      "type": "SCALAR"
    },
    {
      "bufferView": 2,
      "byteOffset": 1572768,
      "componentType": 5126,
      "count": 9076,
      "max": [
        18.042816162109375,
        2.2489373683929443,
        50.505088806152344
      ],
      "min": [
        -22.30295753479004,
        -0.13498811423778534,
        -8.552826881408691
      ],
      "type": "VEC3"
    },
    {
      "bufferView": 2,
      "byteOffset": 1681680,
      "componentType": 5126,
      "count": 9076,
      "max": [
        0.8953093886375427,
        0.9999991655349731,
        0.997538149356842
      ],
      "min": [
        -0.9403489828109741,
        -1.0,
        -0.9961265921592712
      ],
      "type": "VEC3"
    },
    {
      "bufferView": 1,
      "byteOffset": 524256,
      "componentType": 5126,
      "count": 9076,
      "max": [
        311.85723876953125,
        306.85711669921875
      ],
      "min": [
        -93.33783721923828,
        -311.85723876953125
      ],
      "type": "VEC2"
    },
    {
      "bufferView": 0,
      "byteOffset": 1494204,
      "componentType": 5125,
      "count": 40083,
      "type": "SCALAR"
    }
  ],
  "asset": {
    "extras": {
      "author": "lucapianta (https://sketchfab.com/lucapianta)",
      "license": "CC-BY-4.0 (http://creativecommons.org/licenses/by/4.0/)",
      "source": "https://sketchfab.com/3d-models/wrinkled-fabric-cloth-6451c1d3d09c4216be9b1b009c8db63b",
      "title": "Wrinkled Fabric Cloth"
    },
    "generator": "Sketchfab-15.13.0",
    "version": "2.0"
  },
  "bufferViews": [
    {
      "buffer": 0,
      "byteLength": 1654536,
      "name": "floatBufferViews",
      "target": 34963
    },
    {
      "buffer": 0,
      "byteLength": 596864,
      "byteOffset": 1654536,
      "byteStride": 8,
      "name": "floatBufferViews",
      "target": 34962
    },
    {
      "buffer": 0,
      "byteLength": 1790592,
      "byteOffset": 2251400,
      "byteStride": 12,
      "name": "floatBufferViews",
      "target": 34962
    }
  ],
  "buffers": [
    {
      "byteLength": 4041992,
      "uri": "scene.bin"
    }
  ],
  "materials": [
    {
      "doubleSided": true,
      "name": "FABRIC_1_FRONT_1464",
      "pbrMetallicRoughness": {
        "baseColorFactor": [
          0.380392,
          0.380392,
          0.380392,
          1.0
        ],
        "metallicFactor": 0.0,
        "roughnessFactor": 0.9826311700321614
      }
    }
  ],
  "meshes": [
    {
      "name": "cloth_FABRIC 1_FRONT_1464_0",
      "primitives": [
        {
          "attributes": {
            "NORMAL": 1,
            "POSITION": 0,
            "TEXCOORD_0": 2
          },
          "indices": 3,
          "material": 0,
          "mode": 4
        }
      ]
    },
    {
      "name": "cloth_FABRIC 1_FRONT_1464_0",
      "primitives": [
        {
          "attributes": {
            "NORMAL": 5,
            "POSITION": 4,
            "TEXCOORD_0": 6
          },
          "indices": 7,
          "material": 0,
          "mode": 4
        }
      ]
    }
  ],
  "nodes": [
    {
      "children": [
        1
      ],
      "matrix": [
        1.0,
        0.0,
        0.0,
        0.0,
        0.0,
        2.220446049250313e-16,
        -1.0,
        0.0,
        0.0,
        1.0,
        2.220446049250313e-16,
        0.0,
        0.0,
        0.0,
        0.0,
        1.0
      ],
      "name": "Sketchfab_model"
    },
    {
      "children": [
        2
      ],
      "matrix": [
        0.009999999776482582,
        0.0,
        0.0,
        0.0,
        0.0,
        0.0,
        0.009999999776482582,
        0.0,
        0.0,
        -0.009999999776482582,
        0.0,
        0.0,
        0.0,
        0.0,
        0.0,
        1.0
      ],
      "name": "b0dc95c4e7ee4a9b8fad998e65ab5696.fbx"
    },
    {
      "children": [
        3
      ],
      "name": "RootNode"
    },
    {
      "children": [
        4,
        5
      ],
      "name": "cloth"
    },
    {
      "mesh": 0,
      "name": "cloth_FABRIC 1_FRONT_1464_0"
    },
    {
      "mesh": 1,
      "name": "cloth_FABRIC 1_FRONT_1464_0"
    }
  ],
  "scene": 0,
  "scenes": [
    {
      "name": "Sketchfab_Scene",
      "nodes": [
        0
      ]
    }
  ]
}
