{
  "accessors": [
    {
      "bufferView": 2,
      "componentType": 5126,
      "count": 24147,
      "max": [
        98.05397033691406,
        163.80137634277344,
        56.12963104248047
      ],
      "min": [
        -2.2281036376953125,
        -2.4392471313476563,
        8.301860809326172
      ],
      "type": "VEC3"
    },
    {
      "bufferView": 2,
      "byteOffset": 289764,
      "componentType": 5126,
      "count": 24147,
      "max": [
        1.0,
        1.0,
        1.0
      ],
      "min": [
        -1.0,
        -1.0,
        -1.0
      ],
      "type": "VEC3"
    },
    {
      "bufferView": 1,
      "componentType": 5126,
      "count": 24147,
      "max": [
        16.235332489013672,
        15.98840045928955
      ],
      "min": [
        -10.241640090942383,
        -31.69812774658203
      ],
      "type": "VEC2"
    },
    {
      "bufferView": 0,
      "componentType": 5125,
      "count": 106392,
      "type": "SCALAR"
    },
    {
      "bufferView": 2,
      "byteOffset": 579528,
      "componentType": 5126,
      "count": 50,
      "max": [
        94.23875427246094,
        158.92039489746094,
        25.69740867614746
      ],
      "min": [
        1.5871086120605469,
        2.4417266845703125,
        25.19740867614746
      ],
      "type": "VEC3"
    },
    {
      "bufferView": 2,
      "byteOffset": 580128,
      "componentType": 5126,
      "count": 50,
      "max": [
        0.8755852580070496,
        0.8756170272827148,
        1.0
      ],
      "min": [
        -0.8755725622177124,
        -0.8755916357040405,
        -1.0
      ],
      "type": "VEC3"
    },
    {
      "bufferView": 1,
      "byteOffset": 193176,
      "componentType": 5126,
      "count": 50,
      "max": [
        1.0,
        1.0
      ],
      "min": [
        0.0,
        0.0
      ],
      "type": "VEC2"
    },
    {
      "bufferView": 0,
      "byteOffset": 425568,
      "componentType": 5125,
      "count": 132,
      "type": "SCALAR"
    }
  ],
  "asset": {
    "extras": {
      "author": "djkorg (https://sketchfab.com/djkorg)",
      "license": "CC-BY-4.0 (http://creativecommons.org/licenses/by/4.0/)",
      "source": "https://sketchfab.com/3d-models/table-b0d965790f3048768d8803cb370467b5",
      "title": "Table"
    },
    "generator": "Sketchfab-12.97.0",
    "version": "2.0"
  },
  "bufferViews": [
    {
      "buffer": 0,
      "byteLength": 426096,
      "name": "floatBufferViews",
      "target": 34963
    },
    {
      "buffer": 0,
      "byteLength": 193576,
      "byteOffset": 426096,
      "byteStride": 8,
      "name": "floatBufferViews",
      "target": 34962
    },
    {
      "buffer": 0,
      "byteLength": 580728,
      "byteOffset": 619672,
      "byteStride": 12,
      "name": "floatBufferViews",
      "target": 34962
    }
  ],
  "buffers": [
    {
      "byteLength": 1200400,
      "uri": "scene.bin"
    }
  ],
  "extensionsUsed": [
    "KHR_materials_transmission"
  ],
  "materials": [
    {
      "doubleSided": true,
      "name": "material",
      "pbrMetallicRoughness": {
        "baseColorFactor": [
          0.06809051739928212,
          0.05235528369380753,
          0.04626526599013739,
          1.0
        ],
        "metallicFactor": 0.9188599431922078,
        "roughnessFactor": 0.3310455803293877
      }
    },
    {
      "alphaMode": "BLEND",
      "doubleSided": true,
      "extensions": {
        "KHR_materials_transmission": {
          "transmissionFactor": 0.5139032804671405
        }
      },
      "name": "material_1",
      "pbrMetallicRoughness": {
        "baseColorFactor": [
          0.03317800928714476,
          0.04723514516971538,
          0.04536239262455082,
          0.4860967195328595
        ],
        "metallicFactor": 0.26666747936755614,
        "roughnessFactor": 0.0
      }
    }
  ],
  "meshes": [
    {
      "name": "Table_mini_01_0",
      "primitives": [
        {
          "attributes": {
            "NORMAL": 1,
            "POSITION": 0,
            "TEXCOORD_0": 2
          },
          "indices": 3,
          "material": 0,
          "mode": 4
        }
      ]
    },
    {
      "name": "Table_mini_02_0",
      "primitives": [
        {
          "attributes": {
            "NORMAL": 5,
            "POSITION": 4,
            "TEXCOORD_0": 6
          },
          "indices": 7,
          "material": 1,
          "mode": 4
        }
      ]
    }
  ],
  "nodes": [
    {
      "children": [
        1
      ],
      "matrix": [
        1.0,
        0.0,
        0.0,
        0.0,
        0.0,
        2.220446049250313e-16,
        -1.0,
        0.0,
        0.0,
        1.0,
        2.220446049250313e-16,
        0.0,
        0.0,
        0.0,
        0.0,
        1.0
      ],
      "name": "Sketchfab_model"
    },
    {
      "children": [
        2
      ],
      "matrix": [
        0.02539999969303608,
        0.0,
        0.0,
        0.0,
        0.0,
        0.0,
        0.02539999969303608,
        0.0,
        0.0,
        -0.02539999969303608,
        0.0,
        0.0,
        0.0,
        0.0,
        0.0,
        1.0
      ],
      "name": "9d4fa9dc11024b319c2d5394656f1173.fbx"
    },
    {
      "children": [
        3
      ],
      "name": "RootNode"
    },
    {
      "children": [
        4
      ],
      "matrix": [
        2.835090105142826e-08,
        -3.600414458339135e-17,
        -0.6485930085182186,
        0.0,
        -0.6485930085182186,
        0.0,
        -2.8350901159440693e-08,
        0.0,
        3.600414458339135e-17,
        0.6485930085182191,
        -1.440165783335654e-16,
        0.0,
        -13.437515258789063,
        15.452991485595703,
        -31.224822998046875,
        1.0
      ],
      "name": "Table_mini"
    },
    {
      "children": [
        5,
        6
      ],
      "matrix": [
        1.0,
        0.0,
        -0.0,
        0.0,
        0.0,
        1.0,
        0.0,
        0.0,
        0.0,
        0.0,
        1.0,
        0.0,
        -47.9129371643066,
        -80.6810607910156,
        -32.215747833252,
        1.0
      ],
      "name": "Object_4"
    },
    {
      "mesh": 0,
      "name": "Table_mini_01_0"
    },
    {
      "mesh": 1,
      "name": "Table_mini_02_0"
    }
  ],
  "scene": 0,
  "scenes": [
    {
      "name": "Sketchfab_Scene",
      "nodes": [
        0
      ]
    }
  ]
}
